<mxfile host="app.diagrams.net" modified="2020-06-13T05:43:00.461Z" agent="5.0 (Windows NT 6.1; Win64; x64) AppleWebKit/537.36 (KHTML, like Gecko) Chrome/83.0.4103.97 Safari/537.36" etag="_3ayXlwsw3zePysQsVPI" version="13.2.3" type="github">
  <diagram id="SQvi1Jkdsk4PUUPYF7RH" name="第 1 页">
    <mxGraphModel dx="996" dy="746" grid="1" gridSize="10" guides="1" tooltips="1" connect="1" arrows="1" fold="1" page="1" pageScale="1" pageWidth="827" pageHeight="1169" math="0" shadow="0">
      <root>
        <mxCell id="0" />
        <mxCell id="1" parent="0" />
        <mxCell id="LAxECuJPGaB91JiHltR3-1" value="" style="aspect=fixed;pointerEvents=1;shadow=0;dashed=0;html=1;strokeColor=none;labelPosition=center;verticalLabelPosition=bottom;verticalAlign=top;align=center;fillColor=#00188D;shape=mxgraph.mscae.enterprise.server_generic" vertex="1" parent="1">
          <mxGeometry x="180" y="220" width="43.2" height="90" as="geometry" />
        </mxCell>
        <mxCell id="LAxECuJPGaB91JiHltR3-2" value="" style="aspect=fixed;html=1;points=[];align=center;image;fontSize=12;image=img/lib/mscae/Virtual_Machine_2.svg;" vertex="1" parent="1">
          <mxGeometry x="60" y="280" width="50" height="46" as="geometry" />
        </mxCell>
        <mxCell id="LAxECuJPGaB91JiHltR3-3" value="" style="aspect=fixed;html=1;points=[];align=center;image;fontSize=12;image=img/lib/mscae/VM_Linux.svg;" vertex="1" parent="1">
          <mxGeometry x="80" y="380" width="50" height="46" as="geometry" />
        </mxCell>
        <mxCell id="LAxECuJPGaB91JiHltR3-4" value="" style="aspect=fixed;html=1;points=[];align=center;image;fontSize=12;image=img/lib/mscae/VirtualMachineWindows.svg;" vertex="1" parent="1">
          <mxGeometry x="130" y="470" width="50" height="46" as="geometry" />
        </mxCell>
        <mxCell id="LAxECuJPGaB91JiHltR3-5" value="" style="shape=mxgraph.cisco.storage.cloud;html=1;pointerEvents=1;dashed=0;fillColor=#036897;strokeColor=#ffffff;strokeWidth=2;verticalLabelPosition=bottom;verticalAlign=top;align=center;outlineConnect=0;" vertex="1" parent="1">
          <mxGeometry x="321" y="500" width="186" height="106" as="geometry" />
        </mxCell>
        <mxCell id="LAxECuJPGaB91JiHltR3-6" value="" style="pointerEvents=1;shadow=0;dashed=0;html=1;strokeColor=none;fillColor=#434445;aspect=fixed;labelPosition=center;verticalLabelPosition=bottom;verticalAlign=top;align=center;outlineConnect=0;shape=mxgraph.vvd.storage;" vertex="1" parent="1">
          <mxGeometry x="20" y="480.67" width="67" height="89.33" as="geometry" />
        </mxCell>
      </root>
    </mxGraphModel>
  </diagram>
</mxfile>
